/* XPM */
static char const * pause_xpm[] = {
"32 32 2 1",
" 	c None",
".	c #33A3FF",
"       ......      ......       ",
"       ......      ......       ",
"       ......      ......       ",
"       ......      ......       ",
"       ......      ......       ",
"       ......      ......       ",
"       ......      ......       ",
"       ......      ......       ",
"       ......      ......       ",
"       ......      ......       ",
"       ......      ......       ",
"       ......      ......       ",
"       ......      ......       ",
"       ......      ......       ",
"       ......      ......       ",
"       ......      ......       ",
"       ......      ......       ",
"       ......      ......       ",
"       ......      ......       ",
"       ......      ......       ",
"       ......      ......       ",
"       ......      ......       ",
"       ......      ......       ",
"       ......      ......       ",
"       ......      ......       ",
"       ......      ......       ",
"       ......      ......       ",
"       ......      ......       ",
"       ......      ......       ",
"       ......      ......       ",
"       ......      ......       ",
"       ......      ......       "};
